<?xml version="1.0"?>
<svg xmlns="http://www.w3.org/2000/svg" width="50" height="50" viewBox="0 0 50 50">
    <path d="M 1 0 C 0.448 0 0 0.448 0 1 L 0 4 C 0 4.255 0.10625 4.5015 0.28125 4.6875 L 14.6875 20 L 29.3125 20 L 43.71875 4.6875 C 43.75375 4.6505 43.7845 4.6035 43.8125 4.5625 C 43.8555 4.4995 43.9095 4.447 43.9375 4.375 C 43.9665 4.301 43.95775 4.203 43.96875 4.125 C 43.97575 4.077 44 4.049 44 4 L 44 1 C 44 0.448 43.553 0 43 0 L 1 0 z M 16 22 L 16 39 C 16 39.352 16.199 39.66375 16.5 39.84375 L 26.5 45.84375 C 26.659 45.93875 26.822 46 27 46 C 27.17 46 27.347 45.962 27.5 45.875 C 27.814 45.697 28 45.36 28 45 L 28 22 L 16 22 z M 32.90625 31.96875 A 1.0001 1.0001 0 0 0 32.78125 32 A 1.0001 1.0001 0 0 0 32.28125 33.71875 L 39.5625 41 L 32.28125 48.28125 A 1.016466 1.016466 0 1 0 33.71875 49.71875 L 41 42.4375 L 48.28125 49.71875 A 1.016466 1.016466 0 1 0 49.71875 48.28125 L 42.4375 41 L 49.71875 33.71875 A 1.0001 1.0001 0 0 0 48.875 32 A 1.0001 1.0001 0 0 0 48.28125 32.28125 L 41 39.5625 L 33.71875 32.28125 A 1.0001 1.0001 0 0 0 32.90625 31.96875 z"/>
</svg>
