<?xml version="1.0" encoding="UTF-8" standalone="no"?>
<svg version="1.1" xmlns="http://www.w3.org/2000/svg" xmlns:xlink="http://www.w3.org/1999/xlink"
     preserveAspectRatio="xMidYMid meet" viewBox="0 0 18 18" width="18" height="18">
    <defs>
        <path
            d="M5.95 13.24L5.43 14.14L5.28 15L1.67 15L1.67 12L7.47 12L6.76 12.45L5.95 13.24ZM3.17 14.25L4.67 14.25L4.67 12.75L3.17 12.75L3.17 14.25ZM14.75 10.5L15.44 9.49L15.74 7.99L15.64 7.5L16.67 7.5L16.67 10.5L14.75 10.5ZM8.34 9.49L9.03 10.5L1.67 10.5L1.67 7.5L8.14 7.5L8.04 7.99L8.34 9.49ZM3.17 9.75L4.67 9.75L4.67 8.25L3.17 8.25L3.17 9.75ZM15.11 6L14.61 5.27L13.39 4.44L11.89 4.14L10.39 4.44L9.17 5.27L8.67 6L1.67 6L1.67 3L16.67 3L16.67 6L15.11 6ZM3.17 5.25L4.67 5.25L4.67 3.75L3.17 3.75L3.17 5.25Z"
            id="cAOToyhQ1"></path>
        <path
            d="M14.65 7.93C14.65 6.41 13.42 5.18 11.9 5.18C10.38 5.18 9.15 6.41 9.15 7.93C9.15 9.45 10.38 10.68 11.9 10.68C13.42 10.68 14.65 9.45 14.65 7.93ZM6.4 14.8C6.4 14.9 6.4 15.35 6.4 16.18L17.4 16.18C17.4 15.35 17.4 14.9 17.4 14.8C17.4 12.97 13.73 12.05 11.9 12.05C10.06 12.05 6.4 12.97 6.4 14.8Z"
            id="b424Sz9ND"></path>
    </defs>
    <g>
        <g>
            <g>
                <use xlink:href="#cAOToyhQ1" opacity="1" fill-opacity="1"></use>
                <g>
                    <use xlink:href="#cAOToyhQ1" opacity="1" fill-opacity="0" stroke="#000000" stroke-width="1"
                         stroke-opacity="0"></use>
                </g>
            </g>
            <g>
                <use xlink:href="#b424Sz9ND" opacity="1" fill-opacity="1"></use>
                <g>
                    <use xlink:href="#b424Sz9ND" opacity="1" fill-opacity="0" stroke="#000000" stroke-width="1"
                         stroke-opacity="0"></use>
                </g>
            </g>
        </g>
    </g>
</svg>
