<?xml version="1.0" encoding="UTF-8" standalone="no"?>
<svg version="1.1" xmlns="http://www.w3.org/2000/svg" xmlns:xlink="http://www.w3.org/1999/xlink"
     preserveAspectRatio="xMidYMid meet" viewBox="0 0 18 18" width="18" height="18">
    <defs>
        <path
            d="M1.67 15L1.67 12L6.47 12L6.47 15L1.67 15ZM3.17 14.25L4.67 14.25L4.67 12.75L3.17 12.75L3.17 14.25ZM1.67 10.5L1.67 7.5L6.47 7.5L6.47 10.5L1.67 10.5ZM3.17 9.75L4.67 9.75L4.67 8.25L3.17 8.25L3.17 9.75ZM15.68 6L13.4 3.86L12.62 3.84L12.6 3.84L7.6 3.84L7.34 3.87L7.1 3.96L6.89 4.09L6.72 4.26L6.59 4.47L6.5 4.71L6.47 4.97L6.47 6L1.67 6L1.67 3L16.67 3L16.67 6L15.68 6ZM3.17 5.25L4.67 5.25L4.67 3.75L3.17 3.75L3.17 5.25Z"
            id="a5psBg2nai"></path>
        <path
            d="M8.51 4.8C7.85 4.8 7.31 5.34 7.31 6C7.31 6.96 7.31 14.64 7.31 15.6C7.31 16.26 7.84 16.8 8.5 16.8C9.22 16.8 14.98 16.8 15.71 16.8C16.37 16.8 16.91 16.26 16.91 15.6C16.91 15.12 16.91 12.72 16.91 8.4L13.31 4.8C10.43 4.8 8.83 4.8 8.51 4.8ZM9.71 14.4L9.71 13.2L14.51 13.2L14.51 14.4L9.71 14.4ZM9.71 12L9.71 10.8L14.51 10.8L14.51 12L9.71 12ZM12.71 5.7L16.01 9L12.71 9L12.71 5.7Z"
            id="bX5eMYxBV"></path>
    </defs>
    <g>
        <g>
            <g>
                <use xlink:href="#a5psBg2nai" opacity="1" fill-opacity="1"></use>
                <g>
                    <use xlink:href="#a5psBg2nai" opacity="1" fill-opacity="0" stroke="#000000" stroke-width="1"
                         stroke-opacity="0"></use>
                </g>
            </g>
            <g>
                <use xlink:href="#bX5eMYxBV" opacity="1" fill-opacity="1"></use>
                <g>
                    <use xlink:href="#bX5eMYxBV" opacity="1" fill-opacity="0" stroke="#000000" stroke-width="1"
                         stroke-opacity="0"></use>
                </g>
            </g>
        </g>
    </g>
</svg>
