<?xml version="1.0" encoding="UTF-8" standalone="no"?>
<svg version="1.1" xmlns="http://www.w3.org/2000/svg" xmlns:xlink="http://www.w3.org/1999/xlink"
     preserveAspectRatio="xMidYMid meet" viewBox="0 0 18 18" width="18" height="18">
    <defs>
        <path
            d="M1.67 15L1.67 12L5.5 12L5.5 15L1.67 15ZM3.17 14.25L4.67 14.25L4.67 12.75L3.17 12.75L3.17 14.25ZM1.67 10.5L1.67 7.5L5.5 7.5L5.5 10.5L1.67 10.5ZM3.17 9.75L4.67 9.75L4.67 8.25L3.17 8.25L3.17 9.75ZM16.19 4.59L15.31 3.91L14.47 4.59L13.5 3.91L12.66 4.59L11.74 3.87L10.83 4.59L9.91 3.91L9 4.59L8.13 3.91L7.22 4.59L6.34 3.91L6.34 3.91L5.5 3.91L5.5 6L1.67 6L1.67 3L16.67 3L16.67 4.16L16.19 4.59ZM3.17 5.25L4.67 5.25L4.67 3.75L3.17 3.75L3.17 5.25Z"
            id="h41nOo4XRF"></path>
        <path
            d="M8.14 13.59L8.14 12.39L15.34 12.39L15.34 13.59L8.14 13.59ZM8.14 11.19L8.14 9.99L15.34 9.99L15.34 11.19L8.14 11.19ZM8.14 8.79L8.14 7.59L15.34 7.59L15.34 8.79L8.14 8.79ZM7.24 15.69L8.14 16.59L9.04 15.69L9.94 16.59L10.84 15.69L11.74 16.59L12.64 15.69L13.54 16.59L14.44 15.69L15.34 16.59L16.24 15.69L17.14 16.59L17.14 4.59L16.24 5.49L15.34 4.59L14.44 5.49L13.54 4.59L12.64 5.49L11.74 4.59L10.84 5.49L9.94 4.59L9.04 5.49L8.14 4.59L7.24 5.49L6.34 4.59L6.34 16.59L7.24 15.69Z"
            id="cgRIclAcl"></path>
    </defs>
    <g>
        <g>
            <g>
                <use xlink:href="#h41nOo4XRF" opacity="1" fill-opacity="1"></use>
                <g>
                    <use xlink:href="#h41nOo4XRF" opacity="1" fill-opacity="0" stroke="#000000" stroke-width="1"
                         stroke-opacity="0"></use>
                </g>
            </g>
            <g>
                <use xlink:href="#cgRIclAcl" opacity="1" fill-opacity="1"></use>
                <g>
                    <use xlink:href="#cgRIclAcl" opacity="1" fill-opacity="0" stroke="#000000" stroke-width="1"
                         stroke-opacity="0"></use>
                </g>
            </g>
        </g>
    </g>
</svg>
