<?xml version="1.0" encoding="UTF-8" standalone="no"?>
<svg version="1.1" xmlns="http://www.w3.org/2000/svg" xmlns:xlink="http://www.w3.org/1999/xlink"
     preserveAspectRatio="xMidYMid meet" viewBox="0 0 18 18" width="18" height="18">
    <defs>
        <path
            d="M15.96 3.08L16.19 3.17L16.39 3.29L16.58 3.44L16.73 3.62L16.86 3.81L16.96 4.03L17.02 4.26L17.04 4.5L17.04 10.13L16.75 9.75L14.96 9.75L14.96 7.37L13.16 7.37L15.46 6L15.46 4.5L10.64 7.37L7.71 7.37L2.88 4.5L2.88 6L5.76 7.71L5.74 7.72L5.6 7.9L5.49 8.1L5.42 8.32L5.39 8.56L5.39 15L2.88 15L2.63 14.98L2.39 14.92L2.16 14.83L1.96 14.71L1.77 14.56L1.62 14.38L1.49 14.19L1.39 13.97L1.33 13.74L1.31 13.5L1.32 4.5L1.34 4.26L1.4 4.03L1.49 3.81L1.62 3.62L1.78 3.44L1.96 3.29L2.16 3.17L2.39 3.08L2.63 3.02L2.88 3L15.46 3L15.72 3.02L15.96 3.08Z"
            id="g1Oyv23WVF"></path>
        <path
            d="M14.29 9.97L14.29 7.87C9.88 7.87 7.43 7.87 6.94 7.87C6.36 7.87 5.89 8.35 5.89 8.92C5.89 9.31 5.89 11.23 5.89 14.7C6.52 14.7 6.87 14.7 6.94 14.7C6.94 15.57 7.64 16.27 8.51 16.27C9.39 16.27 10.09 15.57 10.09 14.7C10.4 14.7 12.92 14.7 13.24 14.7C13.24 15.57 13.94 16.27 14.81 16.27C15.68 16.27 16.39 15.57 16.39 14.7C16.46 14.7 16.81 14.7 17.44 14.7L17.44 12.07L15.86 9.97L14.29 9.97ZM7.73 14.7C7.73 14.26 8.08 13.91 8.51 13.91C8.95 13.91 9.3 14.26 9.3 14.7C9.3 15.13 8.95 15.49 8.51 15.49C8.08 15.49 7.73 15.13 7.73 14.7ZM16.63 12.07L14.29 12.07L14.29 10.76L15.6 10.76L16.63 12.07ZM14.03 14.7C14.03 14.26 14.38 13.91 14.81 13.91C15.25 13.91 15.6 14.26 15.6 14.7C15.6 15.13 15.25 15.49 14.81 15.49C14.38 15.49 14.03 15.13 14.03 14.7Z"
            id="g2A2XHyftm"></path>
    </defs>
    <g>
        <g>
            <g>
                <use xlink:href="#g1Oyv23WVF" opacity="1" fill-opacity="1"></use>
                <g>
                    <use xlink:href="#g1Oyv23WVF" opacity="1" fill-opacity="0" stroke="#000000" stroke-width="1"
                         stroke-opacity="0"></use>
                </g>
            </g>
            <g>
                <use xlink:href="#g2A2XHyftm" opacity="1" fill-opacity="1"></use>
                <g>
                    <use xlink:href="#g2A2XHyftm" opacity="1" fill-opacity="0" stroke="#000000" stroke-width="1"
                         stroke-opacity="0"></use>
                </g>
            </g>
        </g>
    </g>
</svg>
