<?xml version="1.0" encoding="UTF-8" standalone="no"?>
<svg version="1.1" xmlns="http://www.w3.org/2000/svg" xmlns:xlink="http://www.w3.org/1999/xlink"
     preserveAspectRatio="xMidYMid meet" viewBox="0 0 18 18" width="18" height="18">
    <defs>
        <path
            d="M15.47 3.08L15.69 3.18L15.88 3.3L16.06 3.45L16.21 3.62L16.33 3.82L16.42 4.04L16.48 4.27L16.5 4.51L16.5 6.21L16.14 6.63L15.41 5.78L14.67 6.63L14.44 6.36L15 6.01L15 4.51L12.64 5.98L12.47 5.78L11.88 6.46L11.69 6.58L11 5.78L10.27 6.63L9.53 5.78L8.8 6.63L8.07 5.78L8.07 5.78L7.56 5.78L7.56 7.36L3 4.51L3 6.01L7.56 8.86L7.56 10.08L7.56 10.08L7.56 15.01L3 15.01L2.76 14.99L2.53 14.93L2.31 14.84L2.12 14.72L1.94 14.57L1.79 14.39L1.67 14.2L1.58 13.98L1.52 13.75L1.5 13.51L1.51 4.51L1.53 4.27L1.58 4.04L1.67 3.82L1.8 3.62L1.94 3.45L2.12 3.3L2.31 3.18L2.53 3.08L2.76 3.03L3 3.01L15 3.01L15.24 3.03L15.47 3.08Z"
            id="a3IvJ4ZVC3"></path>
        <path
            d="M15.41 13.86L15.41 12.89L9.53 12.89L9.53 13.86L15.41 13.86ZM15.41 11.91L15.41 10.93L9.53 10.93L9.53 11.91L15.41 11.91ZM15.41 9.95L15.41 8.97L9.53 8.97L9.53 9.95L15.41 9.95ZM16.14 15.58L15.41 16.31L14.67 15.58L13.94 16.31L13.2 15.58L12.47 16.31L11.73 15.58L11 16.31L10.27 15.58L9.53 16.31L8.8 15.58L8.06 16.31L8.06 6.52L8.8 7.26L9.53 6.52L10.27 7.26L11 6.52L11.73 7.26L12.47 6.52L13.2 7.26L13.94 6.52L14.67 7.26L15.41 6.52L16.14 7.26L16.88 6.52L16.88 16.31L16.14 15.58Z"
            id="n7TFQ5g4D"></path>
    </defs>
    <g>
        <g>
            <g>
                <use xlink:href="#a3IvJ4ZVC3" opacity="1" fill-opacity="1"></use>
                <g>
                    <use xlink:href="#a3IvJ4ZVC3" opacity="1" fill-opacity="0" stroke="#000000" stroke-width="1"
                         stroke-opacity="0"></use>
                </g>
            </g>
            <g>
                <use xlink:href="#n7TFQ5g4D" opacity="1" fill-opacity="1"></use>
                <g>
                    <use xlink:href="#n7TFQ5g4D" opacity="1" fill-opacity="0" stroke="#000000" stroke-width="1"
                         stroke-opacity="0"></use>
                </g>
            </g>
        </g>
    </g>
</svg>
