<?xml version="1.0" encoding="UTF-8" standalone="no"?>
<svg version="1.1" xmlns="http://www.w3.org/2000/svg" xmlns:xlink="http://www.w3.org/1999/xlink"
     preserveAspectRatio="xMidYMid meet" viewBox="0 0 18 18" width="18" height="18">
    <defs>
        <path
            d="M15.69 3.17L15.88 3.29L16.06 3.44L16.21 3.62L16.33 3.81L16.42 4.03L16.48 4.26L16.5 4.5L16.5 10.44L5.07 10.44L5.07 12.94L16.5 12.94L16.5 13.5L16.48 13.74L16.42 13.97L16.33 14.19L16.21 14.38L16.06 14.56L15.88 14.71L15.69 14.83L15.47 14.92L15.24 14.98L15 15L13.88 15L13.88 13.44L5.06 13.44L5.06 15L3 15L2.76 14.98L2.53 14.92L2.31 14.83L2.12 14.71L1.94 14.56L1.79 14.38L1.67 14.19L1.58 13.97L1.52 13.74L1.5 13.5L1.51 4.5L1.53 4.26L1.58 4.03L1.67 3.81L1.8 3.62L1.94 3.44L2.12 3.29L2.31 3.17L2.53 3.08L2.76 3.02L3 3L15 3L15.24 3.02L15.47 3.08L15.47 3.08L15.69 3.17ZM3 6L9 9.75L15 6L15 4.5L9 8.25L3 4.5L3 4.5L3 6Z"
            id="b33MgSOMB"></path>
        <path d="M17.75 11L17.75 12.5L5.75 12.5L5.75 11L17.75 11ZM13.25 14L13.25 15.5L5.75 15.5L5.75 14L13.25 14Z"
              id="d2N7au1bb"></path>
    </defs>
    <g>
        <g>
            <g>
                <use xlink:href="#b33MgSOMB" opacity="1" fill-opacity="1"></use>
                <g>
                    <use xlink:href="#b33MgSOMB" opacity="1" fill-opacity="0" stroke="#000000" stroke-width="1"
                         stroke-opacity="0"></use>
                </g>
            </g>
            <g>
                <use xlink:href="#d2N7au1bb" opacity="1" fill-opacity="1"></use>
                <g>
                    <use xlink:href="#d2N7au1bb" opacity="1" fill-opacity="0" stroke="#000000" stroke-width="1"
                         stroke-opacity="0"></use>
                </g>
            </g>
        </g>
    </g>
</svg>
