<?xml version="1.0" encoding="UTF-8" standalone="no"?>
<svg version="1.1" xmlns="http://www.w3.org/2000/svg" xmlns:xlink="http://www.w3.org/1999/xlink"
     preserveAspectRatio="xMidYMid meet" viewBox="0 0 18 18" width="18" height="18">
    <defs>
        <path
            d="M15.47 3.08L15.69 3.17L15.88 3.29L16.06 3.44L16.21 3.62L16.33 3.81L16.42 4.03L16.48 4.26L16.5 4.5L16.5 7.68L14.79 6.13L15 6L15 4.5L13.03 5.73L9.47 5.73L9.19 5.76L8.94 5.85L8.71 5.98L8.52 6.15L8.38 6.35L8.29 6.58L8.26 6.83L8.26 7.79L3 4.5L3 6L8.25 9.28L8.25 15L3 15L2.76 14.98L2.53 14.92L2.31 14.83L2.12 14.71L1.94 14.56L1.79 14.38L1.67 14.19L1.58 13.97L1.52 13.74L1.5 13.5L1.51 4.5L1.53 4.26L1.58 4.03L1.67 3.81L1.8 3.62L1.94 3.44L2.12 3.29L2.31 3.17L2.53 3.08L2.76 3.02L3 3L15 3L15.24 3.02L15.47 3.08Z"
            id="a1tArOyLWz"></path>
        <path
            d="M10.25 6.73C9.7 6.73 9.26 7.18 9.26 7.73C9.25 8.53 9.25 14.93 9.25 15.73C9.25 16.28 9.7 16.73 10.25 16.73C10.85 16.73 15.65 16.73 16.25 16.73C16.8 16.73 17.25 16.28 17.25 15.73C17.25 15.33 17.25 13.33 17.25 9.73L14.25 6.73C11.85 6.73 10.52 6.73 10.25 6.73ZM11.25 14.73L11.25 13.73L15.25 13.73L15.25 14.73L11.25 14.73ZM11.25 12.73L11.25 11.73L15.25 11.73L15.25 12.73L11.25 12.73ZM13.75 7.48L16.5 10.23L13.75 10.23L13.75 7.48Z"
            id="d8pWp7QZ9"></path>
    </defs>
    <g>
        <g>
            <g>
                <use xlink:href="#a1tArOyLWz" opacity="1" fill-opacity="1"></use>
                <g>
                    <use xlink:href="#a1tArOyLWz" opacity="1" fill-opacity="0" stroke="#000000" stroke-width="1"
                         stroke-opacity="0"></use>
                </g>
            </g>
            <g>
                <use xlink:href="#d8pWp7QZ9" opacity="1" fill-opacity="1"></use>
            </g>
        </g>
    </g>
</svg>
