<?xml version="1.0" encoding="UTF-8" standalone="no"?>
<svg version="1.1" xmlns="http://www.w3.org/2000/svg" xmlns:xlink="http://www.w3.org/1999/xlink"
     preserveAspectRatio="xMidYMid meet" viewBox="0 0 18 18" width="18" height="18">
    <defs>
        <path
            d="M10.54 1.81L10.59 1.83L10.64 1.86L10.68 1.89L10.71 1.92L10.74 1.96L10.77 2.01L10.79 2.06L10.8 2.11L11.07 4.01L11.2 4.07L11.33 4.13L11.46 4.19L11.58 4.26L11.7 4.33L11.82 4.4L11.94 4.47L12.06 4.55L12.17 4.63L12.29 4.72L14.08 4L14.13 3.98L14.18 3.98L14.23 3.98L14.28 3.99L14.33 4L14.37 4.02L14.42 4.04L14.46 4.08L14.49 4.12L14.52 4.16L15.44 5.75L8.39 5.75L8.13 5.78L7.89 5.86L7.68 6L7.51 6.17L7.38 6.38L7.29 6.62L7.28 6.73L6.39 7.51L6.25 7.53L6.02 7.61L5.81 7.75L5.63 7.92L5.5 8.13L5.42 8.37L5.39 8.63L5.39 13.41L3.92 14L3.87 14.02L3.82 14.02L3.77 14.02L3.72 14.01L3.67 14L3.63 13.98L3.58 13.96L3.54 13.92L3.51 13.88L3.48 13.84L2.04 11.35L2.02 11.3L2 11.25L2 11.2L2 11.15L2 11.1L2.02 11.05L2.04 11.01L2.06 10.96L2.09 10.92L2.13 10.89L3.65 9.71L3.64 9.64L3.63 9.57L3.62 9.5L3.62 9.43L3.61 9.36L3.61 9.28L3.6 9.21L3.6 9.14L3.6 9.07L3.6 9L3.6 8.93L3.6 8.86L3.61 8.79L3.61 8.72L3.62 8.64L3.63 8.57L3.64 8.5L3.65 8.43L3.66 8.36L3.67 8.3L2.15 7.11L2.1 7.08L2.07 7.04L2.04 6.99L2.02 6.95L2.01 6.9L2 6.85L2.01 6.8L2.02 6.75L2.03 6.7L2.06 6.65L3.49 4.16L3.52 4.12L3.55 4.08L3.59 4.04L3.63 4.02L3.68 4L3.73 3.98L3.78 3.98L3.83 3.98L3.88 3.98L3.93 4L5.72 4.72L5.83 4.64L5.95 4.55L6.06 4.48L6.18 4.4L6.3 4.33L6.42 4.26L6.55 4.19L6.68 4.13L6.81 4.07L6.94 4.01L7.21 2.11L7.22 2.06L7.24 2.01L7.26 1.96L7.29 1.92L7.33 1.89L7.37 1.86L7.41 1.83L7.46 1.81L7.51 1.8L7.56 1.8L10.44 1.8L10.49 1.8L10.54 1.81Z"
            id="bfGN32iM5"></path>
        <path
            d="M9.2 6.51C8.62 6.51 8.15 6.98 8.15 7.56C8.15 8.2 8.15 13.27 8.15 13.9C8.15 14.48 8.62 14.96 9.2 14.96C9.84 14.96 14.91 14.96 15.54 14.96C16.12 14.96 16.6 14.48 16.6 13.9C16.6 13.27 16.6 8.2 16.6 7.56C16.6 6.98 16.12 6.51 15.54 6.51C14.27 6.51 9.84 6.51 9.2 6.51ZM10.26 11.26C10.22 11.26 10.05 11.26 9.73 11.26L9.73 12.32L8.94 12.32L8.94 9.15C9.73 9.15 10.17 9.15 10.26 9.15C10.7 9.15 11.05 9.5 11.05 9.94C11.05 9.97 11.05 10.15 11.05 10.47C10.82 11 10.55 11.26 10.26 11.26ZM12.9 12.32C12.81 12.32 12.37 12.32 11.58 12.32L11.58 9.15C12.37 9.15 12.81 9.15 12.9 9.15C13.34 9.15 13.69 9.5 13.69 9.94C13.69 10.04 13.69 10.57 13.69 11.52C13.46 12.05 13.19 12.32 12.9 12.32ZM15.01 9.94L15.01 10.47L15.8 10.47L15.8 11.26L15.01 11.26L15.01 12.32L14.22 12.32L14.22 9.15L15.8 9.15L15.8 9.94L15.01 9.94ZM10.26 10.47L10.26 9.94L9.73 9.94L9.73 10.47L10.26 10.47ZM6.03 8.62C6.03 13.06 6.03 15.52 6.03 16.01C6.03 16.59 6.51 17.07 7.09 17.07C7.58 17.07 10.05 17.07 14.48 17.07L14.48 16.01L7.09 16.01L7.09 8.62L6.03 8.62ZM12.9 11.52L12.9 9.94L12.37 9.94L12.37 11.52L12.9 11.52Z"
            id="b4MvKzPIGN"></path>
    </defs>
    <g>
        <g>
            <g>
                <use xlink:href="#bfGN32iM5" opacity="1" fill-opacity="1"></use>
                <g>
                    <use xlink:href="#bfGN32iM5" opacity="1" fill-opacity="0" stroke="#000000" stroke-width="1"
                         stroke-opacity="0"></use>
                </g>
            </g>
            <g>
                <use xlink:href="#b4MvKzPIGN" opacity="1" fill-opacity="1"></use>
                <g>
                    <use xlink:href="#b4MvKzPIGN" opacity="1" fill-opacity="0" stroke="#000000" stroke-width="1"
                         stroke-opacity="0"></use>
                </g>
            </g>
        </g>
    </g>
</svg>
