<?xml version="1.0" encoding="UTF-8" standalone="no"?>
<svg version="1.1" xmlns="http://www.w3.org/2000/svg" xmlns:xlink="http://www.w3.org/1999/xlink"
     preserveAspectRatio="xMidYMid meet" viewBox="0 0 18 18" width="18" height="18">
    <defs>
        <path
            d="M10.54 1.81L10.59 1.83L10.64 1.86L10.68 1.89L10.71 1.92L10.74 1.96L10.77 2.01L10.79 2.06L10.8 2.11L11.07 4.01L11.2 4.07L11.33 4.13L11.46 4.19L11.58 4.26L11.7 4.33L11.82 4.4L11.94 4.47L12.06 4.55L12.17 4.63L12.29 4.72L14.08 4L14.13 3.98L14.18 3.98L14.23 3.98L14.28 3.99L14.33 4L14.37 4.02L14.42 4.04L14.46 4.08L14.49 4.12L14.52 4.16L15.91 6.56L10.12 6.56L10.05 6.51L9 6.3L7.95 6.51L7.88 6.56L5.7 6.56L5.6 6.57L5.51 6.58L5.42 6.6L5.33 6.63L5.24 6.66L5.16 6.7L5.08 6.75L5.01 6.8L4.94 6.86L4.87 6.92L4.81 6.99L4.76 7.07L4.71 7.15L4.67 7.23L4.64 7.31L4.61 7.4L4.59 7.5L4.58 7.59L4.57 7.69L4.57 13.74L3.92 14L3.87 14.02L3.82 14.02L3.77 14.02L3.72 14.01L3.67 14L3.63 13.98L3.58 13.96L3.54 13.92L3.51 13.88L3.48 13.84L2.04 11.35L2.02 11.3L2 11.25L2 11.2L2 11.15L2 11.1L2.02 11.05L2.04 11.01L2.06 10.96L2.09 10.92L2.13 10.89L3.65 9.71L3.64 9.64L3.63 9.57L3.62 9.5L3.62 9.43L3.61 9.36L3.61 9.28L3.6 9.21L3.6 9.14L3.6 9.07L3.6 9L3.6 8.93L3.6 8.86L3.61 8.79L3.61 8.72L3.62 8.64L3.63 8.57L3.64 8.5L3.65 8.43L3.66 8.36L3.67 8.3L2.15 7.11L2.1 7.08L2.07 7.04L2.04 6.99L2.02 6.95L2.01 6.9L2 6.85L2.01 6.8L2.02 6.75L2.03 6.7L2.06 6.65L3.49 4.16L3.52 4.12L3.55 4.08L3.59 4.04L3.63 4.02L3.68 4L3.73 3.98L3.78 3.98L3.83 3.98L3.88 3.98L3.93 4L5.72 4.72L5.83 4.64L5.95 4.55L6.06 4.48L6.18 4.4L6.3 4.33L6.42 4.26L6.55 4.19L6.68 4.13L6.81 4.07L6.94 4.01L7.21 2.11L7.22 2.06L7.24 2.01L7.26 1.96L7.29 1.92L7.33 1.89L7.37 1.86L7.41 1.83L7.46 1.81L7.51 1.8L7.56 1.8L10.44 1.8L10.49 1.8L10.54 1.81Z"
            id="h3FWI6mHTg"></path>
        <path
            d="M6.46 7.28C5.84 7.28 5.35 7.78 5.35 8.39C5.35 9.06 5.34 14.42 5.34 15.08C5.34 15.7 5.84 16.2 6.46 16.2C7.35 16.2 14.49 16.2 15.38 16.2C15.99 16.2 16.5 15.7 16.5 15.08C16.5 14.42 16.5 9.06 16.5 8.39C16.5 7.78 15.99 7.28 15.38 7.28C13.6 7.28 7.35 7.28 6.46 7.28ZM10.92 12.3L6.46 9.51L6.46 8.39L10.92 11.18L15.38 8.39L15.38 9.51L10.92 12.3Z"
            id="a3OelFcnKJ"></path>
    </defs>
    <g>
        <g>
            <g>
                <use xlink:href="#h3FWI6mHTg" opacity="1" fill-opacity="1"></use>
                <g>
                    <use xlink:href="#h3FWI6mHTg" opacity="1" fill-opacity="0" stroke="#000000" stroke-width="1"
                         stroke-opacity="0"></use>
                </g>
            </g>
            <g>
                <use xlink:href="#a3OelFcnKJ" opacity="1" fill-opacity="1"></use>
                <g>
                    <use xlink:href="#a3OelFcnKJ" opacity="1" fill-opacity="0" stroke="#000000" stroke-width="1"
                         stroke-opacity="0"></use>
                </g>
            </g>
        </g>
    </g>
</svg>
