<?xml version="1.0" encoding="UTF-8" standalone="no"?>
<svg version="1.1" xmlns="http://www.w3.org/2000/svg" xmlns:xlink="http://www.w3.org/1999/xlink"
     preserveAspectRatio="xMidYMid meet" viewBox="0 0 18 18" width="18" height="18">
    <defs>
        <path
            d="M9.28 14.66L10.03 15.16L10.87 15.33L10.79 15.89L10.78 15.94L10.76 15.99L10.74 16.04L10.71 16.08L10.68 16.11L10.64 16.14L10.59 16.17L10.54 16.19L10.49 16.2L10.44 16.2L7.56 16.2L7.51 16.2L7.46 16.19L7.41 16.17L7.37 16.14L7.33 16.11L7.29 16.08L7.26 16.04L7.23 15.99L7.21 15.94L7.2 15.89L7.1 15.21L7.33 15.16L8.09 14.66L8.61 13.91L8.69 13.51L8.77 13.91L9.28 14.66ZM4.19 12.08L4 12.99L4.18 13.9L3.92 14L3.87 14.02L3.82 14.02L3.77 14.02L3.72 14.01L3.67 14L3.63 13.98L3.58 13.96L3.54 13.92L3.51 13.88L3.48 13.84L2.04 11.35L2.02 11.3L2 11.25L2 11.2L2 11.15L2 11.1L2.02 11.05L2.04 11.01L2.06 10.96L2.09 10.92L2.13 10.89L3.65 9.71L3.64 9.64L3.63 9.57L3.62 9.5L3.62 9.43L3.61 9.36L3.61 9.28L3.6 9.21L3.6 9.14L3.6 9.07L3.6 9L3.6 8.93L3.6 8.86L3.61 8.79L3.61 8.72L3.62 8.64L3.63 8.57L3.64 8.5L3.65 8.43L3.66 8.36L3.67 8.3L2.15 7.11L2.1 7.08L2.07 7.04L2.04 6.99L2.02 6.95L2.01 6.9L2 6.85L2.01 6.8L2.02 6.75L2.03 6.7L2.06 6.65L3.49 4.16L3.52 4.12L3.55 4.08L3.59 4.04L3.63 4.02L3.68 4L3.73 3.98L3.78 3.98L3.83 3.98L3.88 3.98L3.93 4L5.72 4.72L5.83 4.64L5.95 4.55L6.06 4.48L6.18 4.4L6.3 4.33L6.42 4.26L6.55 4.19L6.68 4.13L6.81 4.07L6.94 4.01L7.21 2.11L7.22 2.06L7.24 2.01L7.26 1.96L7.29 1.92L7.33 1.89L7.37 1.86L7.41 1.83L7.46 1.81L7.51 1.8L7.56 1.8L10.44 1.8L10.49 1.8L10.54 1.81L10.59 1.83L10.64 1.86L10.68 1.89L10.71 1.92L10.74 1.96L10.77 2.01L10.79 2.06L10.8 2.11L11.07 4.01L11.2 4.07L11.33 4.13L11.46 4.19L11.58 4.26L11.7 4.33L11.82 4.4L11.94 4.47L12.06 4.55L12.17 4.63L12.29 4.72L14.08 4L14.13 3.98L14.18 3.98L14.23 3.98L14.28 3.99L14.33 4L14.37 4.02L14.42 4.04L14.46 4.08L14.49 4.12L14.52 4.16L15.96 6.65L15.98 6.7L16 6.75L16 6.8L16 6.85L16 6.9L15.98 6.95L15.96 6.99L15.94 7.04L15.91 7.08L15.87 7.11L14.35 8.3L14.36 8.36L14.37 8.43L14.38 8.5L14.38 8.57L14.39 8.64L14.39 8.71L14.4 8.78L14.4 8.86L14.4 8.93L14.4 9L14.4 9.05L14.4 9.11L14.4 9.17L14.39 9.23L14.39 9.3L14.38 9.37L14.38 9.45L14.37 9.53L14.36 9.62L14.36 9.71L15.58 10.67L15.45 10.64L14.53 10.83L13.78 11.33L13.28 12.08L13.2 12.5L13.11 12.08L12.61 11.33L11.86 10.83L11.07 10.67L11.49 10.05L11.7 9L11.49 7.95L10.91 7.09L10.05 6.51L9 6.3L7.95 6.51L7.09 7.09L6.51 7.95L6.3 9L6.51 10.05L6.99 10.76L6.4 10.64L5.46 10.83L4.7 11.33L4.19 12.08ZM13.17 13.64L13.2 13.49L13.23 13.67L13.17 13.64ZM9.04 11.69L8.77 12.08L8.69 12.48L8.61 12.08L8.24 11.55L9 11.7L9.04 11.69Z"
            id="aaY1ZdyOD"></path>
        <path
            d="M4.92 12.99C4.92 13.82 5.6 14.5 6.43 14.5C7.25 14.5 7.93 13.82 7.93 12.99C7.93 12.17 7.25 11.49 6.43 11.49C5.6 11.49 4.92 12.17 4.92 12.99ZM13.95 12.99C13.95 13.82 14.63 14.5 15.46 14.5C16.28 14.5 16.96 13.82 16.96 12.99C16.96 12.17 16.28 11.49 15.46 11.49C14.63 11.49 13.95 12.17 13.95 12.99ZM9.44 12.99C9.44 13.82 10.11 14.5 10.94 14.5C11.77 14.5 12.45 13.82 12.45 12.99C12.45 12.17 11.77 11.49 10.94 11.49C10.11 11.49 9.44 12.17 9.44 12.99Z"
            id="a3O72L2uwg"></path>
    </defs>
    <g>
        <g>
            <g>
                <use xlink:href="#aaY1ZdyOD" opacity="1" fill-opacity="1"></use>
                <g>
                    <use xlink:href="#aaY1ZdyOD" opacity="1" fill-opacity="0" stroke="#000000" stroke-width="1"
                         stroke-opacity="0"></use>
                </g>
            </g>
            <g>
                <use xlink:href="#a3O72L2uwg" opacity="1" fill-opacity="1"></use>
                <g>
                    <use xlink:href="#a3O72L2uwg" opacity="1" fill-opacity="0" stroke="#000000" stroke-width="1"
                         stroke-opacity="0"></use>
                </g>
            </g>
        </g>
    </g>
</svg>
